<svg width="24" height="24" viewBox="0 0 24 24" fill="none" xmlns="http://www.w3.org/2000/svg">
<path d="M12 7.58605L4 15.5861V19.5861L8 19.586L16 11.586M12 7.58605L14.8686 4.7174L14.8704 4.7157C15.2652 4.32082 15.463 4.12303 15.691 4.04894C15.8919 3.98369 16.1082 3.98369 16.3091 4.04894C16.5369 4.12297 16.7345 4.32054 17.1288 4.71486L18.8686 6.45466C19.2646 6.85067 19.4627 7.04878 19.5369 7.2771C19.6022 7.47795 19.6021 7.69429 19.5369 7.89513C19.4628 8.1233 19.265 8.3211 18.8695 8.71655L18.8686 8.7174L16 11.586M12 7.58605L16 11.586" stroke="black" stroke-width="2" stroke-linecap="round" stroke-linejoin="round"/>
</svg>
