<svg width="34" height="33" viewBox="0 0 34 33" fill="none" xmlns="http://www.w3.org/2000/svg">
<path d="M15.0308 2.06071C15.6506 0.153058 18.3494 0.153062 18.9692 2.06072L21.4744 9.77089C21.7516 10.624 22.5466 11.2016 23.4437 11.2016H31.5506C33.5565 11.2016 34.3904 13.7684 32.7677 14.9474L26.209 19.7125C25.4833 20.2398 25.1796 21.1744 25.4568 22.0275L27.962 29.7377C28.5819 31.6453 26.3985 33.2316 24.7757 32.0526L18.2171 27.2875C17.4913 26.7602 16.5087 26.7602 15.7829 27.2875L9.22428 32.0526C7.60153 33.2316 5.41814 31.6453 6.03797 29.7377L8.54316 22.0275C8.82036 21.1744 8.51669 20.2398 7.79097 19.7125L1.23231 14.9474C-0.390442 13.7684 0.443545 11.2016 2.44937 11.2016H10.5563C11.4534 11.2016 12.2484 10.624 12.5256 9.77088L15.0308 2.06071Z" fill="#88EAFF"/>
</svg>
