<svg width="34" height="33" viewBox="0 0 34 33" fill="none" xmlns="http://www.w3.org/2000/svg">
<path d="M16.2988 2.47274C16.5195 1.7935 17.4805 1.79349 17.7012 2.47274L20.2064 10.1829C20.6621 11.5854 21.969 12.535 23.4437 12.535H31.5506C32.2648 12.535 32.5618 13.4489 31.984 13.8687L25.4253 18.6338C24.2323 19.5006 23.7331 21.037 24.1888 22.4395L26.694 30.1497C26.9146 30.8289 26.1372 31.3938 25.5594 30.974L19.0008 26.2088C17.8077 25.342 16.1923 25.342 14.9992 26.2088L8.44056 30.974C7.86277 31.3937 7.08535 30.8289 7.30605 30.1497L9.81123 22.4395C10.2669 21.037 9.76771 19.5006 8.57469 18.6338L2.01602 13.8687C1.43823 13.4489 1.73517 12.535 2.44937 12.535H10.5563C12.031 12.535 13.3379 11.5854 13.7936 10.1829L16.2988 2.47274Z" stroke="black" stroke-width="2.66667"/>
</svg>
