<svg width="14" height="16" viewBox="0 0 14 16" fill="none" xmlns="http://www.w3.org/2000/svg">
<path d="M8.5 6.44444V11.8889M5.5 6.44444V11.8889M2.5 3.33333V12.5111C2.5 13.3823 2.5 13.8176 2.66349 14.1504C2.8073 14.443 3.0366 14.6815 3.31885 14.8306C3.6394 15 4.05925 15 4.89768 15H9.10232C9.94075 15 10.36 15 10.6805 14.8306C10.9628 14.6815 11.1929 14.443 11.3367 14.1504C11.5 13.8179 11.5 13.383 11.5 12.5135V3.33333M2.5 3.33333H4M2.5 3.33333H1M4 3.33333H10M4 3.33333C4 2.60854 4 2.24632 4.11418 1.96045C4.26642 1.57929 4.55824 1.27629 4.92578 1.11841C5.20144 1 5.55109 1 6.25 1H7.75C8.44891 1 8.79837 1 9.07402 1.11841C9.44157 1.27629 9.7335 1.57929 9.88574 1.96045C9.99992 2.24631 10 2.60854 10 3.33333M10 3.33333H11.5M11.5 3.33333H13" stroke="black" stroke-linecap="round" stroke-linejoin="round"/>
</svg>
