<svg width="24" height="26" viewBox="0 0 24 26" fill="none" xmlns="http://www.w3.org/2000/svg">
<path d="M14.5 10.75V19.5M9.5 10.75V19.5M4.5 5.75V20.5C4.5 21.9001 4.5 22.5997 4.77248 23.1345C5.01217 23.6049 5.39434 23.9881 5.86475 24.2278C6.399 24.5 7.09874 24.5 8.49614 24.5H15.5039C16.9013 24.5 17.6 24.5 18.1342 24.2278C18.6046 23.9881 18.9881 23.6049 19.2278 23.1345C19.5 22.6002 19.5 21.9013 19.5 20.5039V5.75M4.5 5.75H7M4.5 5.75H2M7 5.75H17M7 5.75C7 4.58515 7 4.00301 7.1903 3.54358C7.44404 2.93101 7.9304 2.44404 8.54297 2.1903C9.0024 2 9.58515 2 10.75 2H13.25C14.4149 2 14.9973 2 15.4567 2.1903C16.0693 2.44404 16.5558 2.93101 16.8096 3.54358C16.9999 4.00301 17 4.58515 17 5.75M17 5.75H19.5M19.5 5.75H22" stroke="black" stroke-width="2.5" stroke-linecap="round" stroke-linejoin="round"/>
</svg>
